<svg width="67" height="67" viewBox="0 0 67 67" fill="none" xmlns="http://www.w3.org/2000/svg">
<path d="M33.5 1.94312L32.4281 5.22612H29.011L31.825 7.23612L30.686 10.5191L33.5 8.50911L36.3141 10.5191L35.242 7.23612L37.9891 5.22612H34.572L33.5 1.94312ZM19.832 5.56112L18.827 8.84411H15.343L18.157 10.8541L17.085 14.1371L19.832 12.1271L22.646 14.1371L21.574 10.8541L24.3881 8.84411H20.904L19.832 5.56112ZM47.1681 5.56112L46.0961 8.84411H42.612L45.4261 10.8541L44.354 14.1371L47.1681 12.1271L49.9151 14.1371L48.8431 10.8541L51.657 8.84411H48.24L47.1681 5.56112ZM9.84905 15.6111L8.84405 18.8271H5.36005L8.17405 20.9041L7.10205 24.1201L9.84905 22.1101L12.663 24.1201L11.591 20.8371L14.405 18.8941H10.921L9.84905 15.6111ZM54.337 24.1201L57.1511 22.1101L59.8981 24.1201L58.8261 20.8371L61.6401 18.8941H58.2231L57.1511 15.6111L56.079 18.8271H52.5951L55.409 20.9041L54.337 24.1201ZM6.16405 35.7781L8.97805 37.7881L7.90605 34.5051L10.72 32.4951H7.23605L6.16405 29.2121L5.15905 32.4951H1.67505L4.48905 34.5051L3.41705 37.7881L6.16405 35.7781ZM65.3251 32.4951H61.8411L60.8361 29.2121L59.764 32.4951H56.2801L59.094 34.5051L58.022 37.7881L60.8361 35.7781L63.5831 37.7881L62.5111 34.5051L65.3251 32.4951ZM58.2231 46.0961L57.1511 42.8131L56.079 46.0961H52.5951L55.409 48.1061L54.337 51.3891L57.1511 49.3791L59.8981 51.3891L58.8261 48.1061L61.6401 46.0961H58.2231ZM10.921 46.0961L9.84905 42.8131L8.84405 46.0961H5.36005L8.17405 48.1061L7.10205 51.3891L9.84905 49.3791L12.663 51.3891L11.591 48.1061L14.405 46.0961H10.921ZM20.904 56.1461L19.832 52.8631L18.827 56.1461H15.343L18.157 58.1561L17.085 61.4391L19.832 59.3621L22.646 61.4391L21.574 58.1561L24.3881 56.1461H20.904ZM48.24 56.1461L47.1681 52.8631L46.0961 56.1461H42.612L45.4261 58.1561L44.354 61.4391L47.1681 59.3621L49.9151 61.4391L48.8431 58.1561L51.657 56.1461H48.24ZM34.572 59.7641L33.5 56.4811L32.4281 59.7641H29.011L31.825 61.7741L30.686 65.0571L33.5 63.0471L36.3141 65.0571L35.242 61.7741L37.9891 59.7641H34.572Z" fill="#F7F6F2"/>
</svg>
