<svg width="255" height="48" viewBox="0 0 255 48" fill="none" xmlns="http://www.w3.org/2000/svg">
<path d="M5.592 25V9.976H0.288V7.96H12.96V9.976H7.656V25H5.592ZM14.4356 25V7.96H16.4516V15.088L16.2116 15.04C16.3716 14.336 16.6436 13.76 17.0276 13.312C17.4116 12.864 17.8836 12.536 18.4436 12.328C19.0036 12.104 19.6196 11.992 20.2916 11.992C21.2036 11.992 21.9716 12.2 22.5956 12.616C23.2356 13.016 23.7156 13.584 24.0356 14.32C24.3716 15.04 24.5396 15.872 24.5396 16.816V25H22.5236V17.392C22.5236 16.16 22.2996 15.248 21.8516 14.656C21.4196 14.064 20.7556 13.768 19.8596 13.768C18.8356 13.768 18.0116 14.08 17.3876 14.704C16.7636 15.328 16.4516 16.232 16.4516 17.416V25H14.4356ZM33.0677 25.288C31.8677 25.288 30.8277 25.016 29.9477 24.472C29.0837 23.928 28.4117 23.16 27.9317 22.168C27.4677 21.16 27.2357 19.984 27.2357 18.64C27.2357 17.296 27.4677 16.128 27.9317 15.136C28.4117 14.144 29.0757 13.376 29.9237 12.832C30.7877 12.272 31.8037 11.992 32.9717 11.992C34.0757 11.992 35.0517 12.256 35.8997 12.784C36.7477 13.296 37.4037 14.048 37.8677 15.04C38.3477 16.032 38.5877 17.24 38.5877 18.664V19.264H29.3477C29.4277 20.624 29.7877 21.648 30.4277 22.336C31.0837 23.024 31.9637 23.368 33.0677 23.368C33.8997 23.368 34.5797 23.176 35.1077 22.792C35.6517 22.392 36.0277 21.872 36.2357 21.232L38.3957 21.4C38.0597 22.536 37.4197 23.472 36.4757 24.208C35.5477 24.928 34.4117 25.288 33.0677 25.288ZM29.3477 17.488H36.3797C36.2837 16.256 35.9237 15.352 35.2997 14.776C34.6917 14.2 33.9157 13.912 32.9717 13.912C31.9957 13.912 31.1877 14.216 30.5477 14.824C29.9237 15.416 29.5237 16.304 29.3477 17.488ZM41.3184 25V12.28H43.0944L43.1904 15.496L42.9984 15.424C43.1584 14.336 43.5024 13.544 44.0304 13.048C44.5744 12.536 45.2944 12.28 46.1904 12.28H47.4384V14.2H46.2144C45.5744 14.2 45.0384 14.32 44.6064 14.56C44.1904 14.784 43.8704 15.128 43.6464 15.592C43.4384 16.04 43.3344 16.616 43.3344 17.32V25H41.3184ZM49.4513 25V12.28H51.2993L51.3713 15.496L51.0833 15.4C51.2273 14.696 51.4753 14.096 51.8273 13.6C52.1953 13.088 52.6433 12.696 53.1713 12.424C53.6993 12.136 54.2833 11.992 54.9233 11.992C56.0273 11.992 56.9233 12.296 57.6113 12.904C58.3153 13.512 58.7553 14.36 58.9313 15.448L58.5473 15.424C58.6753 14.688 58.9073 14.072 59.2433 13.576C59.5953 13.064 60.0433 12.672 60.5873 12.4C61.1313 12.128 61.7553 11.992 62.4593 11.992C63.3713 11.992 64.1393 12.184 64.7633 12.568C65.3873 12.936 65.8593 13.48 66.1793 14.2C66.4993 14.92 66.6593 15.792 66.6593 16.816V25H64.6433V17.248C64.6433 16.096 64.4193 15.232 63.9713 14.656C63.5233 14.064 62.8593 13.768 61.9793 13.768C61.3873 13.768 60.8672 13.912 60.4193 14.2C59.9873 14.488 59.6513 14.904 59.4113 15.448C59.1713 15.976 59.0513 16.624 59.0513 17.392V25H57.0353V17.392C57.0353 16.256 56.8353 15.368 56.4353 14.728C56.0353 14.088 55.3633 13.768 54.4193 13.768C53.8273 13.768 53.3073 13.912 52.8593 14.2C52.4273 14.488 52.0833 14.904 51.8273 15.448C51.5873 15.992 51.4673 16.64 51.4673 17.392V25H49.4513ZM75.1849 25.288C74.0169 25.288 72.9929 25.016 72.1129 24.472C71.2329 23.928 70.5529 23.16 70.0729 22.168C69.5929 21.16 69.3529 19.984 69.3529 18.64C69.3529 17.28 69.5929 16.104 70.0729 15.112C70.5529 14.12 71.2329 13.352 72.1129 12.808C72.9929 12.264 74.0169 11.992 75.1849 11.992C76.3529 11.992 77.3689 12.264 78.2329 12.808C79.1129 13.352 79.7929 14.12 80.2729 15.112C80.7529 16.104 80.9929 17.28 80.9929 18.64C80.9929 19.984 80.7529 21.16 80.2729 22.168C79.7929 23.16 79.1129 23.928 78.2329 24.472C77.3689 25.016 76.3529 25.288 75.1849 25.288ZM75.1849 23.368C76.3529 23.368 77.2569 22.952 77.8969 22.12C78.5529 21.272 78.8809 20.112 78.8809 18.64C78.8809 17.168 78.5529 16.016 77.8969 15.184C77.2569 14.336 76.3529 13.912 75.1849 13.912C74.0169 13.912 73.1049 14.336 72.4489 15.184C71.7929 16.016 71.4649 17.168 71.4649 18.64C71.4649 20.112 71.7929 21.272 72.4489 22.12C73.1049 22.952 74.0169 23.368 75.1849 23.368ZM88.3723 25.288C87.2363 25.288 86.2683 25.104 85.4683 24.736C84.6843 24.368 84.0683 23.864 83.6203 23.224C83.1883 22.568 82.9403 21.824 82.8763 20.992L84.9883 20.848C85.1163 21.616 85.4443 22.232 85.9723 22.696C86.5003 23.144 87.3003 23.368 88.3723 23.368C89.2363 23.368 89.9243 23.232 90.4363 22.96C90.9643 22.672 91.2283 22.216 91.2283 21.592C91.2283 21.256 91.1483 20.976 90.9883 20.752C90.8283 20.528 90.5163 20.336 90.0523 20.176C89.5883 20 88.9003 19.832 87.9883 19.672C86.7723 19.448 85.8123 19.176 85.1083 18.856C84.4203 18.52 83.9243 18.112 83.6203 17.632C83.3323 17.136 83.1883 16.552 83.1883 15.88C83.1883 14.744 83.6043 13.816 84.4363 13.096C85.2683 12.36 86.4523 11.992 87.9883 11.992C89.0283 11.992 89.9003 12.184 90.6043 12.568C91.3243 12.936 91.8843 13.432 92.2843 14.056C92.7003 14.664 92.9723 15.336 93.1003 16.072L90.9883 16.216C90.8923 15.768 90.7163 15.376 90.4603 15.04C90.2043 14.688 89.8683 14.416 89.4523 14.224C89.0363 14.016 88.5403 13.912 87.9643 13.912C87.0523 13.912 86.3803 14.088 85.9483 14.44C85.5163 14.792 85.3003 15.24 85.3003 15.784C85.3003 16.2 85.3963 16.544 85.5883 16.816C85.7963 17.072 86.1243 17.288 86.5723 17.464C87.0203 17.624 87.6203 17.768 88.3723 17.896C89.6683 18.12 90.6763 18.392 91.3963 18.712C92.1163 19.032 92.6203 19.424 92.9083 19.888C93.1963 20.352 93.3403 20.92 93.3403 21.592C93.3403 22.376 93.1163 23.048 92.6683 23.608C92.2363 24.152 91.6443 24.568 90.8923 24.856C90.1563 25.144 89.3163 25.288 88.3723 25.288ZM100.256 25C99.1037 25 98.2477 24.736 97.6877 24.208C97.1437 23.68 96.8717 22.856 96.8717 21.736V9.304H98.8877V21.688C98.8877 22.264 99.0157 22.664 99.2717 22.888C99.5277 23.112 99.9197 23.224 100.448 23.224H102.272V25H100.256ZM94.9997 14.056V12.28H102.272V14.056H94.9997ZM108.196 25.288C106.884 25.288 105.836 24.984 105.052 24.376C104.284 23.768 103.9 22.92 103.9 21.832C103.9 20.744 104.22 19.888 104.86 19.264C105.5 18.64 106.516 18.2 107.908 17.944L112.42 17.104C112.42 16.032 112.164 15.232 111.652 14.704C111.156 14.176 110.404 13.912 109.396 13.912C108.516 13.912 107.82 14.112 107.308 14.512C106.796 14.896 106.444 15.456 106.252 16.192L104.116 16.024C104.356 14.824 104.932 13.856 105.844 13.12C106.772 12.368 107.956 11.992 109.396 11.992C111.028 11.992 112.276 12.456 113.14 13.384C114.004 14.296 114.436 15.56 114.436 17.176V22.432C114.436 22.72 114.484 22.928 114.58 23.056C114.692 23.168 114.868 23.224 115.108 23.224H115.612V25C115.548 25.016 115.444 25.024 115.3 25.024C115.156 25.04 115.004 25.048 114.844 25.048C114.268 25.048 113.796 24.96 113.428 24.784C113.076 24.592 112.82 24.304 112.66 23.92C112.5 23.52 112.42 23 112.42 22.36L112.66 22.408C112.548 22.952 112.276 23.448 111.844 23.896C111.412 24.328 110.876 24.672 110.236 24.928C109.596 25.168 108.916 25.288 108.196 25.288ZM108.388 23.512C109.236 23.512 109.956 23.352 110.548 23.032C111.156 22.696 111.62 22.248 111.94 21.688C112.26 21.112 112.42 20.472 112.42 19.768V18.856L108.292 19.624C107.428 19.784 106.828 20.032 106.492 20.368C106.172 20.688 106.012 21.112 106.012 21.64C106.012 22.232 106.22 22.696 106.636 23.032C107.068 23.352 107.652 23.512 108.388 23.512ZM121.912 25C120.76 25 119.904 24.736 119.344 24.208C118.8 23.68 118.528 22.856 118.528 21.736V9.304H120.544V21.688C120.544 22.264 120.672 22.664 120.928 22.888C121.184 23.112 121.576 23.224 122.104 23.224H123.928V25H121.912ZM116.656 14.056V12.28H123.928V14.056H116.656ZM132.942 25V7.96H138.222C140.846 7.96 142.862 8.704 144.27 10.192C145.694 11.664 146.406 13.768 146.406 16.504C146.406 19.224 145.71 21.32 144.318 22.792C142.926 24.264 140.942 25 138.366 25H132.942ZM135.006 22.984H138.222C140.222 22.984 141.726 22.448 142.734 21.376C143.742 20.288 144.246 18.664 144.246 16.504C144.246 14.312 143.742 12.68 142.734 11.608C141.726 10.52 140.222 9.976 138.222 9.976H135.006V22.984ZM154.708 25.288C153.508 25.288 152.468 25.016 151.588 24.472C150.724 23.928 150.052 23.16 149.572 22.168C149.108 21.16 148.876 19.984 148.876 18.64C148.876 17.296 149.108 16.128 149.572 15.136C150.052 14.144 150.716 13.376 151.564 12.832C152.428 12.272 153.444 11.992 154.612 11.992C155.716 11.992 156.692 12.256 157.54 12.784C158.388 13.296 159.044 14.048 159.508 15.04C159.988 16.032 160.228 17.24 160.228 18.664V19.264H150.988C151.068 20.624 151.428 21.648 152.068 22.336C152.724 23.024 153.604 23.368 154.708 23.368C155.54 23.368 156.22 23.176 156.748 22.792C157.292 22.392 157.668 21.872 157.876 21.232L160.036 21.4C159.7 22.536 159.06 23.472 158.116 24.208C157.188 24.928 156.052 25.288 154.708 25.288ZM150.988 17.488H158.02C157.924 16.256 157.564 15.352 156.94 14.776C156.332 14.2 155.556 13.912 154.612 13.912C153.636 13.912 152.828 14.216 152.188 14.824C151.564 15.416 151.164 16.304 150.988 17.488ZM162.959 25V12.28H164.807L164.879 15.496L164.591 15.4C164.735 14.696 164.983 14.096 165.335 13.6C165.703 13.088 166.151 12.696 166.679 12.424C167.207 12.136 167.791 11.992 168.431 11.992C169.535 11.992 170.431 12.296 171.119 12.904C171.823 13.512 172.263 14.36 172.439 15.448L172.055 15.424C172.183 14.688 172.415 14.072 172.751 13.576C173.103 13.064 173.551 12.672 174.095 12.4C174.639 12.128 175.263 11.992 175.967 11.992C176.879 11.992 177.647 12.184 178.271 12.568C178.895 12.936 179.367 13.48 179.687 14.2C180.007 14.92 180.167 15.792 180.167 16.816V25H178.151V17.248C178.151 16.096 177.927 15.232 177.479 14.656C177.031 14.064 176.367 13.768 175.487 13.768C174.895 13.768 174.375 13.912 173.927 14.2C173.495 14.488 173.159 14.904 172.919 15.448C172.679 15.976 172.559 16.624 172.559 17.392V25H170.543V17.392C170.543 16.256 170.343 15.368 169.943 14.728C169.543 14.088 168.871 13.768 167.927 13.768C167.335 13.768 166.815 13.912 166.367 14.2C165.935 14.488 165.591 14.904 165.335 15.448C165.095 15.992 164.975 16.64 164.975 17.392V25H162.959ZM188.693 25.288C187.525 25.288 186.501 25.016 185.621 24.472C184.741 23.928 184.061 23.16 183.581 22.168C183.101 21.16 182.861 19.984 182.861 18.64C182.861 17.28 183.101 16.104 183.581 15.112C184.061 14.12 184.741 13.352 185.621 12.808C186.501 12.264 187.525 11.992 188.693 11.992C189.861 11.992 190.877 12.264 191.741 12.808C192.621 13.352 193.301 14.12 193.781 15.112C194.261 16.104 194.501 17.28 194.501 18.64C194.501 19.984 194.261 21.16 193.781 22.168C193.301 23.16 192.621 23.928 191.741 24.472C190.877 25.016 189.861 25.288 188.693 25.288ZM188.693 23.368C189.861 23.368 190.765 22.952 191.405 22.12C192.061 21.272 192.389 20.112 192.389 18.64C192.389 17.168 192.061 16.016 191.405 15.184C190.765 14.336 189.861 13.912 188.693 13.912C187.525 13.912 186.613 14.336 185.957 15.184C185.301 16.016 184.973 17.168 184.973 18.64C184.973 20.112 185.301 21.272 185.957 22.12C186.613 22.952 187.525 23.368 188.693 23.368ZM202.216 25.288C201.032 25.288 200 25.016 199.12 24.472C198.256 23.928 197.584 23.16 197.104 22.168C196.624 21.16 196.384 19.984 196.384 18.64C196.384 17.296 196.624 16.128 197.104 15.136C197.584 14.144 198.256 13.376 199.12 12.832C200 12.272 201.032 11.992 202.216 11.992C203.192 11.992 204.056 12.168 204.808 12.52C205.576 12.856 206.2 13.352 206.68 14.008C207.16 14.664 207.472 15.464 207.616 16.408L205.504 16.552C205.36 15.704 204.992 15.056 204.4 14.608C203.808 14.144 203.08 13.912 202.216 13.912C201.048 13.912 200.136 14.336 199.48 15.184C198.824 16.016 198.496 17.168 198.496 18.64C198.496 20.112 198.824 21.272 199.48 22.12C200.136 22.952 201.048 23.368 202.216 23.368C203.08 23.368 203.808 23.128 204.4 22.648C204.992 22.168 205.36 21.448 205.504 20.488L207.616 20.632C207.472 21.576 207.16 22.4 206.68 23.104C206.2 23.792 205.576 24.328 204.808 24.712C204.056 25.096 203.192 25.288 202.216 25.288ZM210.115 25V12.28H211.891L211.987 15.496L211.795 15.424C211.955 14.336 212.299 13.544 212.827 13.048C213.371 12.536 214.091 12.28 214.987 12.28H216.235V14.2H215.011C214.371 14.2 213.835 14.32 213.403 14.56C212.987 14.784 212.667 15.128 212.443 15.592C212.235 16.04 212.131 16.616 212.131 17.32V25H210.115ZM221.68 25.288C220.368 25.288 219.32 24.984 218.536 24.376C217.768 23.768 217.384 22.92 217.384 21.832C217.384 20.744 217.704 19.888 218.344 19.264C218.984 18.64 220 18.2 221.392 17.944L225.904 17.104C225.904 16.032 225.648 15.232 225.136 14.704C224.64 14.176 223.888 13.912 222.88 13.912C222 13.912 221.304 14.112 220.792 14.512C220.28 14.896 219.928 15.456 219.736 16.192L217.6 16.024C217.84 14.824 218.416 13.856 219.328 13.12C220.256 12.368 221.44 11.992 222.88 11.992C224.512 11.992 225.76 12.456 226.624 13.384C227.488 14.296 227.92 15.56 227.92 17.176V22.432C227.92 22.72 227.968 22.928 228.064 23.056C228.176 23.168 228.352 23.224 228.592 23.224H229.096V25C229.032 25.016 228.928 25.024 228.784 25.024C228.64 25.04 228.488 25.048 228.328 25.048C227.752 25.048 227.28 24.96 226.912 24.784C226.56 24.592 226.304 24.304 226.144 23.92C225.984 23.52 225.904 23 225.904 22.36L226.144 22.408C226.032 22.952 225.76 23.448 225.328 23.896C224.896 24.328 224.36 24.672 223.72 24.928C223.08 25.168 222.4 25.288 221.68 25.288ZM221.872 23.512C222.72 23.512 223.44 23.352 224.032 23.032C224.64 22.696 225.104 22.248 225.424 21.688C225.744 21.112 225.904 20.472 225.904 19.768V18.856L221.776 19.624C220.912 19.784 220.312 20.032 219.976 20.368C219.656 20.688 219.496 21.112 219.496 21.64C219.496 22.232 219.704 22.696 220.12 23.032C220.552 23.352 221.136 23.512 221.872 23.512ZM236.294 25.288C235.11 25.288 234.078 25.016 233.198 24.472C232.334 23.928 231.662 23.16 231.182 22.168C230.702 21.16 230.462 19.984 230.462 18.64C230.462 17.296 230.702 16.128 231.182 15.136C231.662 14.144 232.334 13.376 233.198 12.832C234.078 12.272 235.11 11.992 236.294 11.992C237.27 11.992 238.134 12.168 238.886 12.52C239.654 12.856 240.278 13.352 240.758 14.008C241.238 14.664 241.55 15.464 241.694 16.408L239.582 16.552C239.438 15.704 239.07 15.056 238.478 14.608C237.886 14.144 237.158 13.912 236.294 13.912C235.126 13.912 234.214 14.336 233.558 15.184C232.902 16.016 232.574 17.168 232.574 18.64C232.574 20.112 232.902 21.272 233.558 22.12C234.214 22.952 235.126 23.368 236.294 23.368C237.158 23.368 237.886 23.128 238.478 22.648C239.07 22.168 239.438 21.448 239.582 20.488L241.694 20.632C241.55 21.576 241.238 22.4 240.758 23.104C240.278 23.792 239.654 24.328 238.886 24.712C238.134 25.096 237.27 25.288 236.294 25.288ZM244.37 28.6V26.824H245.834C246.282 26.824 246.61 26.752 246.818 26.608C247.042 26.48 247.21 26.264 247.322 25.96L247.778 24.76H247.082L242.426 12.28H244.634L248.426 22.888L252.05 12.28H254.258L249.098 26.608C248.858 27.296 248.498 27.8 248.018 28.12C247.538 28.44 246.874 28.6 246.026 28.6H244.37Z" fill="#483E3A"/>
<rect y="36" width="255" height="12" fill="#CC6D65" fill-opacity="0.2"/>
<rect x="26" y="36" width="204" height="11.7665" fill="#CC6D65" fill-opacity="0.2"/>
<rect x="51" y="36" width="153" height="11.7665" fill="#CC6D65" fill-opacity="0.2"/>
<rect x="77" y="36" width="102" height="11.7665" fill="#CC6D65" fill-opacity="0.2"/>
<rect x="102" y="36" width="51" height="11.7665" fill="#CC6D65" fill-opacity="0.2"/>
<rect x="121" y="36" width="12.75" height="12" fill="#CC6D65" fill-opacity="0.2"/>
</svg>
